{"title":"Captain America The Winter Soldier 2014 HDTS NEWSOURCE x264 AC3-","uid":10431165,"size":1383488899,"categoryP":"video","categoryS":"movies","magnet":"?xt=urn:btih:b7beef43c6a3075e7f432bd4d3af25e78f16380e&amp;dn=Captain+America+The+Winter+Soldier+2014+HDTS+NEWSOURCE+x264+AC3-&amp;tr=udp%3A%2F%2Ftracker.openbittorrent.com%3A80&amp;tr=udp%3A%2F%2Fopen.demonii.com%3A1337&amp;tr=udp%3A%2F%2Ftracker.coppersurfer.tk%3A6969&amp;tr=udp%3A%2F%2Fexodus.desync.com%3A6969","seeders":2,"leechers":0,"uploader":"Xetron","files":4,"time":1403802277,"description":" &lt;a href=&quot;http://s30.postimg.org/4hxznis9d/MV5_BMz_A2_NDkw_ODAw_M15_BMl5_Ban_Bn_Xk_Ft_ZTgw_ODk5_MTgz_MTE.jpg&quot; rel=&quot;nofollow&quot; target=&quot;_NEW&quot;&gt;http://s30.postimg.org/4hxznis9d/MV5_BMz_A2_NDkw_ODAw_M15_BMl5_Ban_Bn_Xk_Ft_ZTgw_ODk5_MTgz_MTE.jpg&lt;/a&gt;\n       \nCaptain America The Winter Soldier 2014 HDTS NEWSOURCE x264 AC3-MiLLENiUM                  \n\nGeneral\n\nSource...............: 1080i HDTV MPEG2 DD2.0 [THANKS]\nIMDb Information.... : http://www.imdb.com/title/tt1843866/\nSample Included......: yes\n\nGeneral\nComplete name                            : Captain America The Winter Soldier 2014 HDTS NEWSOURCE x264 AC3-MiLLENiUM.mkv\nFormat                                   : Matroska\nFormat version                           : Version 2\nFile size                                : 1.26 GiB\nDuration                                 : 2h 15mn\nOverall bit rate mode                    : Variable\nOverall bit rate                         : 1 333 Kbps\nEncoded date                             : UTC 2014-06-26 14:14:19\nWriting application                      : mkvmerge v7.0.0 ('Where We Going') 32bit built on Jun  9 2014 15:08:34\nWriting library                          : libebml v1.3.0 + libmatroska v1.4.1\n\nVideo\nID                                       : 1\nFormat                                   : AVC\nFormat/Info                              : Advanced Video Codec\nFormat profile                           : &lt;a class=&quot;__cf_email__&quot; href=&quot;/cdn-cgi/l/email-protection&quot; data-cfemail=&quot;5e163739361e126a706f&quot;&gt;[email&amp;#160;protected]&lt;/a&gt;&lt;script cf-hash='f9e31' type=&quot;text/javascript&quot;&gt;\n/* &lt;![CDATA[ */!function(){try{var t=&quot;currentScript&quot;in document?document.currentScript:function(){for(var t=document.getElementsByTagName(&quot;script&quot;),e=t.length;e--;)if(t[e].getAttribute(&quot;cf-hash&quot;))return t[e]}();if(t&amp;&amp;t.previousSibling){var e,r,n,i,c=t.previousSibling,a=c.getAttribute(&quot;data-cfemail&quot;);if(a){for(e=&quot;&quot;,r=parseInt(a.substr(0,2),16),n=2;a.length-n;n+=2)i=parseInt(a.substr(n,2),16)^r,e+=String.fromCharCode(i);e=document.createTextNode(e),c.parentNode.replaceChild(e,c)}}}catch(u){}}();/* ]]&gt; */&lt;/script&gt;\nFormat settings, CABAC                   : Yes\nFormat settings, ReFrames                : 3 frames\nCodec ID                                 : V_MPEG4/ISO/AVC\nDuration                                 : 2h 15mn\nBit rate mode                            : Variable\nBit rate                                 : 1 083 Kbps\nMaximum bit rate                         : 40.0 Mbps\nWidth                                    : 720 pixels\nHeight                                   : 304 pixels\nDisplay aspect ratio                     : 2.35:1\nFrame rate mode                          : Constant\nFrame rate                               : 29.970 fps\nColor space                              : YUV\nChroma subsampling                       : 4:2:0\nBit depth                                : 8 bits\nScan type                                : Progressive\nBits/(Pixel*Frame)                       : 0.165\nStream size                              : 1.03 GiB (81%)\nWriting library                          : x264 core 142 r2431 ac76440\n\nAudio\nID                                       : 2\nFormat                                   : AC-3\nFormat/Info                              : Audio Coding 3\nMode extension                           : CM (complete main)\nFormat settings, Endianness              : Big\nCodec ID                                 : A_AC3\nDuration                                 : 2h 15mn\nBit rate mode                            : Constant\nBit rate                                 : 224 Kbps\nChannel(s)                               : 2 channels\nChannel positions                        : Front: L R\nSampling rate                            : 44.1 KHz\nBit depth                                : 16 bits\nCompression mode                         : Lossy\nStream size                              : 217 MiB (17%)\nLanguage                                 : English\nDefault                                  : Yes\nForced                                   : No\n\nPlot\n\nSteve Rogers struggles to embrace his role in the modern world and battles a new threat from old history: the Soviet agent known as the Winter Soldier.  \n \nScreenshots\n &lt;a href=&quot;\nhttp://s22.postimg.org/4uoab15lt/vlcsnap_2014_06_26_15h17m12s253.jpg&quot; rel=&quot;nofollow&quot; target=&quot;_NEW&quot;&gt;\nhttp://s22.postimg.org/4uoab15lt/vlcsnap_2014_06_26_15h17m12s253.jpg&lt;/a&gt; &lt;a href=&quot;\nhttp://s22.postimg.org/70il5j929/vlcsnap_2014_06_26_15h18m33s32.jpg&quot; rel=&quot;nofollow&quot; target=&quot;_NEW&quot;&gt;\nhttp://s22.postimg.org/70il5j929/vlcsnap_2014_06_26_15h18m33s32.jpg&lt;/a&gt; &lt;a href=&quot;\nhttp://s22.postimg.org/apcvir8gx/vlcsnap_2014_06_26_15h19m48s31.jpg&quot; rel=&quot;nofollow&quot; target=&quot;_NEW&quot;&gt;\nhttp://s22.postimg.org/apcvir8gx/vlcsnap_2014_06_26_15h19m48s31.jpg&lt;/a&gt; &lt;a href=&quot;\nhttp://s22.postimg.org/alegordlt/vlcsnap_2014_06_26_15h20m15s40.jpg&quot; rel=&quot;nofollow&quot; target=&quot;_NEW&quot;&gt;\nhttp://s22.postimg.org/alegordlt/vlcsnap_2014_06_26_15h20m15s40.jpg&lt;/a&gt; &lt;a href=&quot;\nhttp://s22.postimg.org/9lsr6sntt/vlcsnap_2014_06_26_15h21m08s57.jpg&quot; rel=&quot;nofollow&quot; target=&quot;_NEW&quot;&gt;\nhttp://s22.postimg.org/9lsr6sntt/vlcsnap_2014_06_26_15h21m08s57.jpg&lt;/a&gt; &lt;a href=&quot;\nhttp://s22.postimg.org/lz0zzyo4h/vlcsnap_2014_06_26_15h23m34s227.jpg&quot; rel=&quot;nofollow&quot; target=&quot;_NEW&quot;&gt;\nhttp://s22.postimg.org/lz0zzyo4h/vlcsnap_2014_06_26_15h23m34s227.jpg&lt;/a&gt; &lt;a href=&quot;\nhttp://s22.postimg.org/8nce4iaht/vlcsnap_2014_06_26_15h23m53s174.jpg&quot; rel=&quot;nofollow&quot; target=&quot;_NEW&quot;&gt;\nhttp://s22.postimg.org/8nce4iaht/vlcsnap_2014_06_26_15h23m53s174.jpg&lt;/a&gt; &lt;a href=&quot;\nhttp://s22.postimg.org/j8w9gigtd/vlcsnap_2014_06_26_15h26m07s217.jpg&quot; rel=&quot;nofollow&quot; target=&quot;_NEW&quot;&gt;\nhttp://s22.postimg.org/j8w9gigtd/vlcsnap_2014_06_26_15h26m07s217.jpg&lt;/a&gt; &lt;a href=&quot;\nhttp://s22.postimg.org/w2ub9uu8x/vlcsnap_2014_06_26_15h27m08s81.jpg&quot; rel=&quot;nofollow&quot; target=&quot;_NEW&quot;&gt;\nhttp://s22.postimg.org/w2ub9uu8x/vlcsnap_2014_06_26_15h27m08s81.jpg&lt;/a&gt;","torrent":{"xt":"urn:btih:b7beef43c6a3075e7f432bd4d3af25e78f16380e","amp;dn":"Captain+America+The+Winter+Soldier+2014+HDTS+NEWSOURCE+x264+AC3-","amp;tr":["udp%3A%2F%2Ftracker.openbittorrent.com%3A80","udp%3A%2F%2Fopen.demonii.com%3A1337","udp%3A%2F%2Ftracker.coppersurfer.tk%3A6969","udp%3A%2F%2Fexodus.desync.com%3A6969"],"infoHash":"b7beef43c6a3075e7f432bd4d3af25e78f16380e","infoHashBuffer":{"type":"Buffer","data":[183,190,239,67,198,163,7,94,127,67,43,212,211,175,37,231,143,22,56,14]},"announce":[],"urlList":[]}}